<svg width="64" height="67" viewBox="0 0 64 67" fill="none" xmlns="http://www.w3.org/2000/svg">
<path d="M0.528 67V57.72H14.16V10.872H0.528V1.592H24.208V16.248L23.44 14.392C24.8053 11.448 26.8747 8.90933 29.648 6.776C32.464 4.64266 35.6 3 39.056 1.848C42.5547 0.653333 46.032 0.0559998 49.488 0.0559998C52.816 0.0559998 55.6533 0.354665 58 0.951996C60.3467 1.54933 62.224 2.27467 63.632 3.128V25.592H53.2V6.2L56.4 11.192C55.3333 10.8933 54.1813 10.68 52.944 10.552C51.7493 10.424 50.4907 10.36 49.168 10.36C44.8587 10.36 40.848 11.0853 37.136 12.536C33.424 13.944 30.4373 16.0347 28.176 18.808C25.9573 21.5813 24.848 24.9733 24.848 28.984V57.72H44.112V67H0.528Z" fill="#45BCFF"/>
</svg>
